:SAMPLES-PER-SECOND 30
:FULLY-SPECIFIED
:DEGREES
426
root  -34.1445 34.6022 -3.86981 -166.068 -4.68801 -178.47
RightUpLeg  -19.4352 -25.6451 10.0536
RightLeg  7.88006 -6.76277 -0.492812
RightFoot  3.34098 0.0272308 -0.257372
RightToes  -22.7192 -0.10243 -0.202577
Spine  2.3662 0.87732 3.03844
Spine1  4.75486 1.60541 6.69647
HEad  3.95972 -11.4471 -3.50332
LeftShoulder1  -1.94126e-019 -3.10601e-018 -2.51263e-017
LeftArm  -11.2936 20.5385 -81.9174
LeftForeArm  30.8892 -28.4335 -4.95062
LeftHand  -0.353158 -1.34915 6.23831
RightShoulder  -4.96962e-017 0 -2.36833e-017
RightArm  -22.8035 -18.145 71.9911
RightForeArm  60.1964 12.9398 1.36387
RightHand  -0.396353 -0.223583 -8.93021
LeftUpLeg  -20.0637 5.4658 7.41173
LeftLeg  23.8258 11.0838 4.03033
LeftFoot  2.63607 -0.0113774 0.657054
LeftToes  -27.3941 1.83942e-006 5.51297e-008
427
root  -34.0996 34.5687 -3.91221 -166.091 -3.51482 -178.38
RightUpLeg  -19.5897 -25.1132 10.0901
RightLeg  8.37538 -6.12441 -0.499626
RightFoot  3.08134 0.0231447 -0.21121
RightToes  -22.6866 -0.102588 -0.202304
Spine  2.38971 0.729424 3.1591
Spine1  4.78541 1.2594 6.95067
HEad  4.17979 -11.231 -3.72913
LeftShoulder1  -1.94126e-019 -3.10601e-018 -2.51263e-017
LeftArm  -11.6464 19.2676 -82.0664
LeftForeArm  31.1542 -29.3306 -5.13492
LeftHand  -0.368166 -1.3015 6.53995
RightShoulder  -4.96962e-017 0 -2.36833e-017
RightArm  -25.9071 -18.9442 71.1729
RightForeArm  60.0366 10.6352 1.53873
RightHand  -0.324769 -1.60722 -9.81962
LeftUpLeg  -20.7825 7.41639 7.13714
LeftLeg  25.8307 11.6895 4.71088
LeftFoot  2.66604 -0.0123731 0.688067
LeftToes  -28.4307 1.83942e-006 5.51297e-008
428
root  -34.0729 34.5315 -3.96503 -166.087 -1.94048 -178.176
RightUpLeg  -19.7401 -24.3438 10.1643
RightLeg  8.87297 -5.3244 -0.481043
RightFoot  2.85923 0.0196951 -0.166491
RightToes  -22.7392 -0.103048 -0.202598
Spine  2.43707 0.638433 3.27549
Spine1  4.86808 1.03566 7.18582
HEad  4.54956 -11.0049 -3.97237
LeftShoulder1  -1.94126e-019 -3.10601e-018 -2.51263e-017
LeftArm  -11.35 18.3803 -82.1747
LeftForeArm  30.4447 -30.9632 -5.38368
LeftHand  -0.369713 -1.077 6.7761
RightShoulder  -4.96962e-017 0 -2.36833e-017
RightArm  -32.5029 -19.2459 70.4187
RightForeArm  63.5413 9.11461 1.48195
RightHand  -0.328425 -1.61426 -9.95042
LeftUpLeg  -21.4975 9.00084 6.99901
LeftLeg  28.0894 12.6698 5.67975
LeftFoot  2.69555 -0.0136868 0.74329
LeftToes  -29.2416 1.83942e-006 5.51297e-008
429
root  -34.0775 34.5053 -4.01434 -166.11 -0.266191 -178.012
RightUpLeg  -19.8455 -24.0669 10.2256
RightLeg  9.24216 -3.93066 -0.380739
RightFoot  2.78294 0.0159832 -0.107227
RightToes  -23.1887 -0.103846 -0.203595
Spine  2.491 0.514918 3.3768
Spine1  4.97065 0.77173 7.37299
HEad  4.68087 -10.8912 -4.17019
LeftShoulder1  -1.94126e-019 -3.10601e-018 -2.51263e-017
LeftArm  -11.0819 17.7366 -82.4307
LeftForeArm  29.6753 -32.834 -5.67252
LeftHand  -0.376562 -0.948413 7.02857
RightShoulder  -4.96962e-017 0 -2.36833e-017
RightArm  -32.2522 -19.8238 69.1592
RightForeArm  61.9157 9.50119 1.51081
RightHand  -0.305136 -1.79603 -9.67417
LeftUpLeg  -22.3414 9.75212 6.90645
LeftLeg  30.7649 13.8227 6.96086
LeftFoot  3.19188 -0.0219815 0.950502
LeftToes  -30.7192 1.83942e-006 5.51297e-008
430
root  -34.1061 34.4912 -4.06309 -166.142 1.60275 -177.828
RightUpLeg  -19.8759 -23.5262 10.206
RightLeg  9.52852 -2.62955 -0.267826
RightFoot  2.84439 0.0149303 -0.0565531
RightToes  -23.6404 -0.105018 -0.205428
Spine  2.58575 0.476884 3.43545
Spine1  5.16735 0.700774 7.45982
HEad  4.80846 -11.1742 -4.31971
LeftShoulder1  -1.94126e-019 -3.10601e-018 -2.51263e-017
LeftArm  -10.3305 17.1706 -82.5706
LeftForeArm  29.0948 -35.0187 -6.16335
LeftHand  -0.377757 -0.924754 7.07496
RightShoulder  -4.96962e-017 0 -2.36833e-017
RightArm  -29.93 -20.078 67.855
RightForeArm  60.1824 10.6434 1.53967
RightHand  -0.279889 -1.89304 -9.08434
LeftUpLeg  -23.2969 10.1699 6.88328
LeftLeg  33.7862 14.8453 8.44427
LeftFoot  4.19976 -0.0443587 1.35037
LeftToes  -32.6601 1.83942e-006 5.51297e-008
431
root  -34.1736 34.4847 -4.10669 -166.169 3.69098 -177.672
RightUpLeg  -19.974 -22.4413 9.97995
RightLeg  10.0015 -1.65949 -0.1826
RightFoot  2.94175 0.0147845 -0.015623
RightToes  -24.2831 -0.1066 -0.210336
Spine  2.71504 0.478865 3.43489
Spine1  5.43942 0.726584 7.41333
HEad  5.03723 -11.59 -4.4505
LeftShoulder1  -1.94126e-019 -3.10601e-018 -2.51263e-017
LeftArm  -9.42548 16.6907 -82.6556
LeftForeArm  29.156 -37.3003 -6.77351
LeftHand  -0.387998 -1.00848 7.17568
RightShoulder  -4.96962e-017 0 -2.36833e-017
RightArm  -28.1464 -19.6387 66.7535
RightForeArm  58.9957 11.8954 1.48228
RightHand  -0.30877 -1.52822 -9.14247
LeftUpLeg  -24.4135 10.5367 6.84761
LeftLeg  37.164 15.2135 9.84122
LeftFoot  4.97967 -0.0636701 1.68758
LeftToes  -31.9956 1.83942e-006 5.51297e-008
432
root  -34.2691 34.4864 -4.15096 -166.14 5.87486 -177.565
RightUpLeg  -19.9345 -21.2391 9.6799
RightLeg  10.0749 -0.782421 -0.086609
RightFoot  3.25902 0.0147105 0.0266196
RightToes  -24.9051 -0.110457 -0.215043
Spine  2.82996 0.478727 3.37887
Spine1  5.68756 0.769147 7.24493
HEad  5.30869 -11.9362 -4.71006
LeftShoulder1  -1.94126e-019 -3.10601e-018 -2.51263e-017
LeftArm  -8.37351 16.2206 -82.6229
LeftForeArm  29.2421 -39.4939 -7.39569
LeftHand  -0.371776 -1.09183 6.79888
RightShoulder  -4.96962e-017 0 -2.36833e-017
RightArm  -25.2422 -18.8352 65.7965
RightForeArm  56.3713 13.4956 1.32237
RightHand  -0.290688 -1.69911 -8.97205
LeftUpLeg  -25.4295 10.2553 6.8928
LeftLeg  40.0181 14.8655 10.6801
LeftFoot  4.43583 -0.0532132 1.53548
LeftToes  -25.5402 1.83942e-006 5.51297e-008
433
root  -34.3982 34.4931 -4.2072 -166.083 8.26435 -177.454
RightUpLeg  -19.9187 -19.8218 9.27615
RightLeg  10.1696 0.150145 0.0180526
RightFoot  3.59726 0.0140278 0.0842874
RightToes  -25.736 -0.115688 -0.221266
Spine  2.96305 0.546257 3.28038
Spine1  5.9738 0.9536 6.99313
HEad  5.62113 -12.2797 -5.00717
LeftShoulder1  -1.94126e-019 -3.10601e-018 -2.51263e-017
LeftArm  -7.17005 15.6689 -82.5772
LeftForeArm  29.7384 -41.2788 -7.90557
LeftHand  -0.395503 -1.33029 6.98768
RightShoulder  -4.96962e-017 0 -2.36833e-017
RightArm  -23.1416 -17.5811 65.047
RightForeArm  53.7995 15.0002 1.17157
RightHand  -0.291803 -1.71573 -9.04632
LeftUpLeg  -26.2203 9.76575 7.07943
LeftLeg  41.7366 13.4872 10.3403
LeftFoot  3.04257 -0.0226317 1.01372
LeftToes  -23.0918 1.83942e-006 5.51297e-008
434
root  -34.5768 34.5096 -4.24158 -166.053 10.4766 -177.389
RightUpLeg  -19.9482 -18.6784 8.81234
RightLeg  10.2358 1.19086 0.137746
RightFoot  4.05216 0.0127244 0.165741
RightToes  -26.718 -0.121986 -0.228521
Spine  3.10506 0.557168 3.16609
Spine1  6.27447 1.03065 6.71163
HEad  6.12008 -12.3521 -5.4789
LeftShoulder1  -1.94126e-019 -3.10601e-018 -2.51263e-017
LeftArm  -6.09119 14.9722 -82.5645
LeftForeArm  30.2261 -42.5898 -8.2904
LeftHand  -0.404437 -1.74467 6.75908
RightShoulder  -4.96962e-017 0 -2.36833e-017
RightArm  -22.3441 -15.9397 64.6136
RightForeArm  51.7615 16.4148 1.15184
RightHand  -0.287882 -1.88314 -9.3274
LeftUpLeg  -26.9892 8.62139 7.30872
LeftLeg  42.513 12.7204 10.0438
LeftFoot  1.68338 -0.0062896 0.589688
LeftToes  -21.4392 1.83942e-006 5.51297e-008
435
root  -34.7984 34.5358 -4.27576 -165.955 12.8347 -177.418
RightUpLeg  -20.0867 -17.4111 8.22879
RightLeg  10.2122 2.15425 0.247494
RightFoot  4.60074 0.0104106 0.264485
RightToes  -27.7852 -0.128971 -0.236282
Spine  3.24872 0.632207 2.98083
Spine1  6.57614 1.2293 6.32173
HEad  6.57012 -12.4344 -5.96539
LeftShoulder1  -1.94126e-019 -3.10601e-018 -2.51263e-017
LeftArm  -4.95825 14.1509 -82.5437
LeftForeArm  30.5164 -43.4704 -8.56024
LeftHand  -0.408846 -1.87074 6.59012
RightShoulder  -4.96962e-017 0 -2.36833e-017
RightArm  -22.5523 -14.17 64.5048
RightForeArm  50.2494 17.8348 1.38968
RightHand  -0.290261 -1.94026 -9.55619
LeftUpLeg  -27.6583 7.32146 7.48103
LeftLeg  42.2423 13.08 10.2198
LeftFoot  1.0843 -0.00263757 0.44032
LeftToes  -20.8748 1.83942e-006 5.51297e-008
436
root  -35.0741 34.5657 -4.31074 -165.877 15.3025 -177.549
RightUpLeg  -20.2885 -15.8437 7.42167
RightLeg  10.1897 2.88155 0.329555
RightFoot  5.22322 0.0068495 0.365949
RightToes  -28.7223 -0.135222 -0.242988
Spine  3.41724 0.71741 2.71695
Spine1  6.91882 1.43154 5.81306
HEad  6.96712 -12.3567 -6.40163
LeftShoulder1  -1.94126e-019 -3.10601e-018 -2.51263e-017
LeftArm  -4.11778 13.3482 -82.4889
LeftForeArm  30.7853 -44.015 -8.72375
LeftHand  -0.411381 -2.03474 6.50298
RightShoulder  -4.96962e-017 0 -2.36833e-017
RightArm  -22.9309 -12.4028 64.812
RightForeArm  48.5107 19.3384 1.73387
RightHand  -0.333825 -1.71395 -10.3812
LeftUpLeg  -28.04 5.6506 7.68128
LeftLeg  40.608 13.5572 9.98498
LeftFoot  -0.11876 -6.7514e-005 0.0962099
LeftToes  -19.4358 1.83942e-006 5.51297e-008
437
root  -35.3962 34.5929 -4.3326 -165.722 17.9465 -177.745
RightUpLeg  -20.7831 -13.8982 6.46981
RightLeg  10.3763 3.40177 0.400042
RightFoot  5.84938 0.00215245 0.461054
RightToes  -29.5674 -0.140954 -0.248948
Spine  3.61885 0.897199 2.37562
Spine1  7.32275 1.8033 5.18647
HEad  7.14746 -12.3555 -6.64135
LeftShoulder1  -1.94126e-019 -3.10601e-018 -2.51263e-017
LeftArm  -3.13293 12.4047 -82.2763
LeftForeArm  30.9109 -44.2481 -8.79172
LeftHand  -0.413412 -2.20272 6.45448
RightShoulder  -4.96962e-017 0 -2.36833e-017
RightArm  -22.8678 -10.7247 65.3801
RightForeArm  47.249 21.1807 2.12757
RightHand  -0.416371 -1.10224 -11.2067
LeftUpLeg  -28.2006 3.41655 8.02833
LeftLeg  37.3975 13.4691 8.8291
LeftFoot  -1.18245 -0.00371497 -0.198466
LeftToes  -18.9175 1.83942e-006 5.51297e-008
